<?xml version="1.0" encoding="UTF-8"?>
<svg id="Camada_6" data-name="Camada 6" xmlns="http://www.w3.org/2000/svg" viewBox="0 0 1080 1080">
  <defs>
    <style>
      .cls-1 {
        fill: #e85328;
      }
    </style>
  </defs>
  <path class="cls-1" d="M451.45,640.64c-13.88-21.3-17.95-28.87-20.26-39.86-1.1-5.25-6.28-32.58,8.5-56.2,12.9-20.63,27.86-17.38,42.48-33.33,27.09-29.56,14.07-82.62,9.8-99.98,0,0-15.79-64.28-85.6-110.44-6.4-4.23-18.86-11.78-36.27-16.17-14.21-3.58-30.73-7.75-44.11,0-15.07,8.73-21.04,29.59-20.58,45.58,1.26,44.3,51.89,52.9,54.56,94.75,1.33,20.86-10.1,36.82-30.06,64.69-26.01,36.32-45.74,45.32-67.14,66.98-51.1,51.72-67.06,130.44-60.28,189.67,2.77,24.17,7.23,63.21,38.55,96.88,40.72,43.77,95.75,45.04,102.6,45.09,78.48.55,122.28-66.34,127.43-74.5,5.39-8.54,42.15-68.7,20.26-115.01-5.51-11.66-9.86-12.12-39.86-58.16ZM424,483.16c-11.94,43.99-43.55,45.46-48.36,82.34-.68,5.2,4.34,24.38,14.38,62.73,8.49,32.45,14.61,52.64,13.07,81.03-1.02,18.75-4.64,27.49-10.46,33.98-9.76,10.88-25.1,14.75-36.87,13.75-30.38-2.58-54.53-39.17-59.19-71.26-4.2-28.88,7.78-51.39,24.83-82.34,35.27-64.04,76.81-85.91,76.96-120.89.06-15.05,4.2-30.19,2.11-45.09-.77-5.47-2.48-14.52,2.61-19.6,3.12-3.11,8.62-4.57,12.42-3.27,12,4.12,16.49,39.15,8.5,68.61Z"/>
  <path class="cls-1" d="M705.65,672.66c-2.46-20.34-6.22-51.47-28.75-75.8-11.05-11.93-17.47-12.36-37.9-33.33-13.07-13.41-19.78-20.3-25.49-30.71-3.35-6.11-11.03-21.97-9.8-66,.91-32.62,5.42-34.73,8.5-73.19,2.42-30.29,1.49-52.37.65-70.57-1.63-35.62-2.59-53.69-9.8-66.65-17.39-31.27-51.06-40.5-56.2-41.82-9.05-2.33-45.82-11.81-69.27,10.46-19.43,18.45-17.53,47.12-16.99,55.24,1.68,25.3,13.15,30.86,34.63,75.45,14.87,30.86,24.34,50.52,26.79,78.42,2.74,31.23-4.71,56.88-7.84,67.31-4.76,15.85-7.02,15.9-26.14,60.12-16.73,38.71-18.76,47.39-17.64,58.16,1.45,13.94,8.72,36.73,25.98,43.13,23.27,8.63,55.69-15.88,66.16-42.48,6.96-17.67,3.77-35.91-2.61-72.37-3.72-21.26-4.01-32.96-4.57-56.37-.2-8.44-.27-21.16,6.21-24.18,2.4-1.12,5.61-.86,7.84.65,5.82,3.96,3.46,15.5,2.94,24.83,0,0-.92,16.63,9.15,43.13,12.31,32.42,36.98,28.81,43.49,54.89,5.61,22.46-8.01,43.85-12.12,50.32-4.05,6.37-9.68,13.16-44.11,36.92-39.58,27.32-39.71,23.57-47.38,32.35-24.12,27.62-22.88,64.79-22.52,75.8.67,20.13,1.39,41.7,15.98,54.89,31.72,28.67,100.66-7.88,110.14-13.07,12.61-6.9,56.71-31.93,74.79-84.95,10.42-30.57,7.55-56.78,5.88-70.57ZM576.26,399.84c-.39,6.85-1.89,11.65-4.9,21.24-.47,1.5-1.4,4.34-3.92,6.86-.21.21-4.69,4.62-7.51,3.92-5.43-1.35-.13-20.46-5.88-44.44-2.51-10.45-7.12-29.7-18.62-41.17-1.24-1.24-6.83-6.64-10.46-15.36-2.46-5.92-2.35-9.35-2.29-10.46.29-4.81,2.66-11.95,8.5-14.7,6.96-3.28,14.85,1.55,17.64,3.27,3.26,2,10.97,7.53,19.28,32.35,0,0,9.81,29.31,8.17,58.49Z"/>
  <path class="cls-1" d="M742.9,288.42c-26.11-10.43-47.55-8.69-52.93-8.14-15.4,1.56-36.78,3.72-48.36,20.56-12.49,18.16-5.14,41.18-3.27,47.05,1.98,6.2,10.39,29.23,31.37,39.21,11,5.24,22.01,5.24,27.45,15.03.92,1.65,3.95,7.12,1.96,11.94-3.34,8.09-17.49,6.2-35.29,10.93-9,2.39-29.78,7.92-38.85,21.56-16.27,24.48,10.68,66.81,12.71,69.92,15.58,23.89,30.5,26.36,53.58,47.05,23.4,20.97,45.14,43.48,51.62,75.8,4.98,24.83,2.84,67.58,2.61,71.88-.88,16.65-2.36,24.82,3.27,32.02,11.68,14.93,42.47,11.06,60.77,4.57,42.08-14.91,58.58-57.92,61.43-65.35,12.06-31.43,7.36-59.04,5.85-67.31-4.28-23.36-15.04-39.97-36.56-73.19-13.65-21.07-20.48-31.61-29.41-37.25-17.24-10.89-45.7-17.07-71.88-11.76-9.4,1.91-19.07,5.41-31.66,1.96-4-1.1-13.4-4.3-20.62-13.07-3.37-4.1-8.39-10.2-7.29-17.65,1.6-10.83,14.89-15.78,16.44-16.33,11.31-4.03,21.64.15,28.1,1.96,26.01,7.27,62.14-3.75,79.07-24.18,23.51-28.37,7.75-72.15,5.88-77.11-14.94-39.73-52.9-54.89-66-60.12Z"/>
  <path class="cls-1" d="M659.25,252.48c17.52-16.61,25.49-29.59,30.06-38.55,4.81-9.44,7.92-15.71,5.23-19.6-.76-1.1-4.28-5.33-27.45,0-24.11,5.55-51.05,11.75-58.16,32.02-.48,1.38-3.49,10.36,0,20.26,4.25,12.07,16.88,21.87,28.75,20.91,6.12-.5,11.35-5.35,21.56-15.03Z"/>
</svg>